<?xml version="1.0" encoding="UTF-8"?>
<svg id="uuid-dd143ef9-2fb7-43ae-a0fc-ed291549b5a1" data-name="Layer 2" xmlns="http://www.w3.org/2000/svg" viewBox="0 0 370.62 81.51">
  <g id="uuid-eb7f28f3-9e88-40f8-91b9-464ae671a467" data-name="Layer 1">
    <rect width="370.62" height="81.51" style="fill: #fff; opacity: 0;"/>
    <g id="uuid-dae4b15e-32d5-4a32-a581-05d92c1e1100" data-name="primary-color">
      <g>
        <path d="M141.06,21.61v3.9h-16.65v29.45h-4.45v-29.45h-16.75v-3.9h37.85Z" style="fill: #292929;"/>
        <path d="M147.11,21.61h20.8c8.4.1,8.45.1,10.75.4,2.7.35,4.7,1.65,5.75,3.7.75,1.55,1.05,3.2,1.05,5.95,0,6.15-1.1,7.9-5.5,8.8,4.2.95,5.05,2.7,4.9,9.75v4.75h-4.45v-3.2c.05-5.9-.1-6.9-1.35-8.25-1.6-1.3-2.2-1.4-11.15-1.4h-16.35v12.85h-4.45V21.61ZM167.91,38.21c7.2,0,8.25-.05,9.75-.45,2.45-.65,3.25-2.2,3.25-6.15,0-2.35-.6-4.2-1.6-4.9-1.35-1-3.4-1.2-11.4-1.2h-16.35v12.7h16.35Z" style="fill: #292929;"/>
        <path d="M197.06,21.61v33.35h-4.45V21.61h4.45Z" style="fill: #292929;"/>
        <path d="M205.05,21.61h21.1q11.25.25,13.3,1.8c1.9,1.45,2.7,3.95,2.7,8.5s-.7,6.9-2.5,8.4c-1.75,1.55-3.2,1.95-7.3,2.05q-1.05.05-6.2.05h-16.65v12.55h-4.45V21.61ZM226.16,38.51c8.1,0,8.75-.1,10.1-1.2,1-.85,1.35-2.1,1.35-5.25,0-3.45-.25-4.55-1.25-5.3-1.35-1-1.85-1.1-10.2-1.25h-16.65v13h16.65Z" style="fill: #292929;"/>
        <path d="M284.71,21.61v3.9h-16.65v29.45h-4.45v-29.45h-16.75v-3.9h37.85Z" style="fill: #292929;"/>
        <path d="M295.2,21.61v33.35h-4.45V21.61h4.45Z" style="fill: #292929;"/>
        <path d="M305.98,51.57v3.39h-3.27v-3.39h3.27Z" style="fill: #292929;"/>
        <path d="M311.08,45.24v-.6c0-2.91,1.77-3.75,7.8-3.75,4.71,0,6.33.33,7.5,1.56.96.96,1.17,1.89,1.17,5.19v7.32h-2.19l.03-1.62h-.09c-1.05,1.5-2.07,1.8-6.3,1.8-4.86,0-6.24-.18-7.23-.9-.96-.72-1.29-1.56-1.29-3.3,0-2.16.51-3.21,1.89-3.78.84-.36,2.13-.48,5.19-.48,5.7,0,6.66.18,7.62,1.5h.18v-1.5c0-1.44-.15-2.04-.66-2.64-.78-.96-2.04-1.23-5.67-1.23-4.02,0-5.07.24-5.46,1.26-.09.18-.15.57-.18,1.17h-2.31ZM313.69,49.08c-.6.36-.87.96-.87,1.89,0,.99.3,1.5,1.02,1.86.63.3,2.1.39,5.61.39,4.65,0,5.76-.45,5.76-2.31s-1.32-2.28-6.21-2.28c-3.6,0-4.71.09-5.31.45Z" style="fill: #292929;"/>
        <path d="M333.94,34.95v2.61h-2.19v-2.61h2.19ZM333.94,41.07v13.89h-2.19v-13.89h2.19Z" style="fill: #292929;"/>
      </g>
      <g id="uuid-cca28514-b1f1-4edd-a489-9e038c5979b9" data-name="logomark-joined">
        <path d="M83.18,32.78c0-13.21-10.71-23.91-23.91-23.91s-23.91,10.71-23.91,23.91c0,6.01,2.22,11.5,5.89,15.7l18.02,24.16,18.05-24.19c3.41-4.56,5.86-9.68,5.86-15.67ZM67.57,46.39v10.3s0-7.97-8.3-7.97c-8.8,0-15.94-7.14-15.94-15.94s7.14-15.94,15.94-15.94,15.94,7.14,15.94,15.94c0,5.76-3.06,10.81-7.64,13.61Z" style="fill: #f23d1d;"/>
      </g>
    </g>
  </g>
</svg>