<?xml version="1.0" encoding="UTF-8"?>
<svg id="uuid-7588cc3d-b75a-449b-8836-7c5e966538b4" data-name="Layer 2" xmlns="http://www.w3.org/2000/svg" viewBox="0 0 412.23 98.82">
  <g id="uuid-17b8f8f9-887a-4133-baff-57a6055874f5" data-name="tripti.ai-logo">
    <g id="uuid-dc18e735-a47c-46ad-b0ae-1b23a27a6f57" data-name="white-background">
      <g id="uuid-c5f6ca31-a184-4bdb-8ada-4e9b2856fe0f" data-name="tripti.ai-text">
        <path id="uuid-a2545f1d-4fa6-4706-95de-4986f09db09f" data-name="t1" d="M126.39,67.74v12.1h-11.37c-11.16,0-15.85-5.21-15.85-17.73v-25.03h-7.93v-11.68h8.24l.83-13.56h14.29v13.56h11.26v11.68h-11.26v24.09c0,5.11,1.25,6.57,5.74,6.57h6.05Z" style="fill: #060f29;"/>
        <path id="uuid-bf3d953e-4471-4826-ab22-dc244f1e311e" data-name="r1" d="M163.93,24.37v14.39h-2.92c-8.03,0-11.89,3.02-13.35,10.64v30.45h-15.43V25.41h13.14l.63,10.12c2.09-7.72,6.36-11.16,13.87-11.16h4.07Z" style="fill: #060f29;"/>
        <path id="uuid-f00be088-fe15-4e1c-bf60-eaa6b716edcd" data-name="i1" d="M168.63,4.55h16.27v13.14h-16.27V4.55ZM169.04,25.41h15.43v54.43h-15.43V25.41Z" style="fill: #060f29;"/>
        <path id="uuid-dc675d5c-18c0-440b-8237-df5ff8ac54bd" data-name="p1" d="M244.23,46.47v12.2c0,14.7-6.99,22.42-19.4,22.42-5.84,0-10.43-1.77-14.08-5.63v23.36h-15.43V25.41h13.14l.42,6.57c4.07-5.42,9.07-7.82,15.95-7.82,12.41,0,19.4,7.61,19.4,22.32ZM228.8,46.58c0-6.99-2.61-9.91-7.61-9.91s-8.24,2.82-10.43,8.24v15.33c2.19,5.53,5.63,8.34,10.53,8.34s7.51-2.82,7.51-9.91v-12.1Z" style="fill: #060f29;"/>
        <path id="uuid-eef98fd8-c17b-4a09-a44e-3b1e7bb5b7d7" data-name="t2" d="M282.19,67.74v12.1h-11.37c-11.16,0-15.85-5.21-15.85-17.73v-25.03h-7.93v-11.68h8.24l.83-13.56h14.29v13.56h11.26v11.68h-11.26v24.09c0,5.11,1.25,6.57,5.74,6.57h6.05Z" style="fill: #060f29;"/>
        <path id="uuid-6897050c-6f3a-4c87-809d-ad8d5fec893c" data-name="i2" d="M287.61,4.55h16.27v13.14h-16.27V4.55ZM288.03,25.41h15.43v54.43h-15.43V25.41Z" style="fill: #060f29;"/>
        <path id="uuid-2a4a76ca-4dad-4b62-a56e-e1e90826c9d3" data-name="dot" d="M314.83,63.68h16.16v16.16h-16.16v-16.16Z" style="fill: #060f29;"/>
        <path id="uuid-2ed73b3d-99f1-4990-89cc-100e10cd4579" data-name="a1" d="M386.26,44.8v35.04h-13.04l-.52-6.78c-3.75,5.32-9.18,8.03-16.37,8.03-10.74,0-17.21-6.05-17.21-16.89,0-11.47,7.2-17.83,21.69-17.83h10.01v-1.77c0-5.63-2.19-8.34-7.72-8.34s-7.4,2.4-7.61,6.15h-14.91c.83-12.1,8.13-18.25,23.15-18.25s22.52,6.46,22.52,20.65ZM370.83,62.84v-6.26h-7.2c-6.99,0-9.28,2.4-9.28,6.36s2.29,6.05,6.67,6.05,7.61-2.09,9.8-6.15Z" style="fill: #060f29;"/>
        <path id="uuid-eadb8e8b-467a-489f-b4c2-efde5c0c4589" data-name="i3" d="M395.96,4.55h16.27v13.14h-16.27V4.55ZM396.38,25.41h15.43v54.43h-15.43V25.41Z" style="fill: #060f29;"/>
      </g>
      <path id="uuid-475b42aa-e0a0-426f-b5c7-d0a6f74bb46b" data-name="logomark-joined" d="M72,36C72,16.12,55.88,0,36,0S0,16.12,0,36c0,9.05,3.35,17.32,8.86,23.64l27.14,36.38,27.23-36.42h-.05c5.49-6.32,8.83-14.57,8.83-23.6ZM48.49,56.49v15.51s0-12-12.49-12c-13.25,0-24-10.75-24-24s10.75-24,24-24,24,10.75,24,24c0,8.68-4.61,16.28-11.51,20.49Z" style="fill: #fa3823;"/>
    </g>
  </g>
</svg>