<?xml version="1.0" encoding="UTF-8"?>
<svg id="uuid-9bd9cd00-8b67-4a4c-b27e-57b4874aba72" data-name="Layer 2" xmlns="http://www.w3.org/2000/svg" viewBox="0 0 387.1 120.17">
  <g id="uuid-e0d6af0b-38d5-4682-b7f7-2b38479580e7" data-name="Layer 17">
    <rect width="387.1" height="120.17" style="fill: none;"/>
  </g>
  <g id="uuid-5c79525c-b1ce-4a89-9199-36b7c2abc72f" data-name="dark-background">
    <g id="uuid-fb0059d7-376c-45b6-8de4-64c679c1d45a" data-name="a2-logomark-adjusted-final copy 2">
      <path id="uuid-e6fdcb2e-b474-4b9b-8072-62965cb236ad" data-name="logomark-joined" d="M82.51,48.86c0-19.88-16.12-36-36-36S10.51,28.98,10.51,48.86c0,9.05,3.35,17.32,8.86,23.64l27.14,36.38,27.23-36.42h-.05c5.49-6.32,8.83-14.57,8.83-23.6ZM59,69.36v15.51s0-12-12.49-12c-13.25,0-24-10.75-24-24s10.75-24,24-24,24,10.75,24,24c0,8.68-4.61,16.28-11.51,20.49Z" style="fill: #fa3823;"/>
      <g>
        <path d="M137.45,78.22v10.57c0,.41-.33.74-.74.74h-10.58c-11.1,0-15.77-5.19-15.77-17.64v-24.17c0-.41-.33-.74-.74-.74h-9.13l7.51-11.62c.39,0,2.69-.3,2.71-.69l.75-12.11c.02-.39.35-.69.73-.69h12.79c.41,0,.74.33.74.74v12.02c0,.41.33.74.74.74h14.17l-10.47,11.62c-.41,0-4.44.33-4.44.74v23.24c0,5.08,1.24,6.54,5.71,6.54h5.28c.41,0,.74.33.74.74Z" style="fill: #e6e6e6;"/>
        <path d="M174.02,35.05v12.85c0,.41-.33.74-.74.74h-2.17c-7.96,0-11.8,2.99-13.27,10.51,0,.05-.01.1-.01.15v29.49c0,.41-.33.74-.74.74h-13.89c-.41,0-.74-.33-.74-.74v-52.7c0-.41.33-.74.74-.74h11.65c.39,0,.71.3.73.69l.36,5.74c.05.76,1.09.96,1.4.26,2.35-5.31,6.36-7.73,12.63-7.73h3.31c.41,0,.74.33.74.74Z" style="fill: #e6e6e6;"/>
        <path d="M225.64,35.35c.5,0,.85.49.7.96l-18.88,57.87c-3.63,11.21-7.37,14.22-17.95,14.22h-7.05c-.41,0-.74-.33-.74-.74v-11.3h6.02c2.91,0,4.15-.83,5.19-4.05h0c.74-2.22.73-4.62-.04-6.84l-16.96-49.16c-.16-.48.19-.98.7-.98h14.71c.33,0,.61.21.71.53l9.17,30.83c.21.71,1.22.7,1.41-.02l8.41-30.8c.09-.32.38-.54.71-.54h13.89Z" style="fill: #e6e6e6;"/>
        <path d="M276.99,56.31v12.14c0,14.63-6.95,22.31-19.3,22.31-5.18,0-9.37-1.4-12.79-4.42-.48-.42-1.22-.09-1.22.54v20.79c0,.41-.33.74-.74.74h-13.89c-.41,0-.74-.33-.74-.74V36.09c0-.41.33-.74.74-.74h11.65c.39,0,.71.3.73.69l.25,3.98c.04.66.85.92,1.29.43,3.83-4.38,8.51-6.34,14.71-6.34,12.35,0,19.3,7.57,19.3,22.21ZM261.64,56.42c0-6.95-2.59-9.86-7.58-9.86s-8.14,2.75-10.32,8.05c-.04.09-.06.19-.06.3v14.95c0,.1.02.2.06.29,2.18,5.41,5.59,8.16,10.42,8.16s7.47-2.8,7.47-9.86v-12.04Z" style="fill: #e6e6e6;"/>
        <path d="M323.37,78.32v10.46c0,.41-.33.74-.74.74h-43.05c-.41,0-.74-.33-.74-.74v-9.6c0-.16.05-.32.15-.45l23.42-30.27c.37-.48.03-1.19-.58-1.19h-20.08c-.41,0-.74-.33-.74-.74v-10.46c0-.41.33-.74.74-.74h40.35c.41,0,.74.33.74.74v9.6c0,.16-.05.32-.15.45l-23.42,30.26c-.37.48-.03,1.19.58,1.19h22.77c.41,0,.74.33.74.74Z" style="fill: #e6e6e6;"/>
        <path d="M374.84,35.35c.5,0,.85.49.7.96l-18.88,57.87c-3.63,11.21-7.37,14.22-17.95,14.22h-7.05c-.41,0-.74-.33-.74-.74v-10.57c0-.41.33-.74.74-.74h5.28c2.91,0,4.15-.83,5.19-4.05h0c.74-2.22.73-4.62-.04-6.84l-16.96-49.16c-.16-.48.19-.98.7-.98h14.71c.33,0,.61.21.71.53l9.17,30.83c.21.71,1.22.7,1.41-.02l8.41-30.8c.09-.32.38-.54.71-.54h13.89Z" style="fill: #e6e6e6;"/>
      </g>
    </g>
  </g>
</svg>