<?xml version="1.0" encoding="UTF-8"?>
<svg id="uuid-f0ec5da7-1fba-4af7-9fe6-d70353d41444" data-name="Layer 2" xmlns="http://www.w3.org/2000/svg" viewBox="0 0 412.23 98.82">
  <g id="uuid-9b8da4be-7c90-4242-9c08-36ea5e7f3118" data-name="tripti.ai-logo">
    <g id="uuid-23c3a316-d13f-403a-95d6-cfed02e8b298" data-name="black-background" style="opacity: .5;">
      <g id="uuid-58e95d63-a37e-4d4b-bbe7-9e640e26f0c3" data-name="tripti.ai-text">
        <path id="uuid-a39b5704-c540-4952-bc24-81a18e9aba5f" data-name="t1" d="M126.39,67.74v12.1h-11.37c-11.16,0-15.85-5.21-15.85-17.73v-25.03h-7.93v-11.68h8.24l.83-13.56h14.29v13.56h11.26v11.68h-11.26v24.09c0,5.11,1.25,6.57,5.74,6.57h6.05Z" style="fill: #fff;"/>
        <path id="uuid-9f65b827-c500-4bc9-9612-350e17c81797" data-name="r1" d="M163.93,24.37v14.39h-2.92c-8.03,0-11.89,3.02-13.35,10.64v30.45h-15.43V25.41h13.14l.63,10.12c2.09-7.72,6.36-11.16,13.87-11.16h4.07Z" style="fill: #fff;"/>
        <path id="uuid-72d7e9d3-0825-465f-b270-ea31468324d4" data-name="i1" d="M168.63,4.55h16.27v13.14h-16.27V4.55ZM169.04,25.41h15.43v54.43h-15.43V25.41Z" style="fill: #fff;"/>
        <path id="uuid-3713ed15-a2b4-49ee-87c7-5948bb445c1a" data-name="p1" d="M244.23,46.47v12.2c0,14.7-6.99,22.42-19.4,22.42-5.84,0-10.43-1.77-14.08-5.63v23.36h-15.43V25.41h13.14l.42,6.57c4.07-5.42,9.07-7.82,15.95-7.82,12.41,0,19.4,7.61,19.4,22.32ZM228.8,46.58c0-6.99-2.61-9.91-7.61-9.91s-8.24,2.82-10.43,8.24v15.33c2.19,5.53,5.63,8.34,10.53,8.34s7.51-2.82,7.51-9.91v-12.1Z" style="fill: #fff;"/>
        <path id="uuid-0dec0fba-72e1-4701-b113-91f02c27ac18" data-name="t2" d="M282.19,67.74v12.1h-11.37c-11.16,0-15.85-5.21-15.85-17.73v-25.03h-7.93v-11.68h8.24l.83-13.56h14.29v13.56h11.26v11.68h-11.26v24.09c0,5.11,1.25,6.57,5.74,6.57h6.05Z" style="fill: #fff;"/>
        <path id="uuid-32243355-75b4-4ad0-b353-c3e4502f64c5" data-name="i2" d="M287.61,4.55h16.27v13.14h-16.27V4.55ZM288.03,25.41h15.43v54.43h-15.43V25.41Z" style="fill: #fff;"/>
        <path id="uuid-3fb9ead1-e23d-4c82-94b5-0cb9fa0ab295" data-name="dot" d="M314.83,63.68h16.16v16.16h-16.16v-16.16Z" style="fill: #fff;"/>
        <path id="uuid-7ec6b6cb-24ed-4e39-9948-32cee423041f" data-name="a1" d="M386.26,44.8v35.04h-13.04l-.52-6.78c-3.75,5.32-9.18,8.03-16.37,8.03-10.74,0-17.21-6.05-17.21-16.89,0-11.47,7.2-17.83,21.69-17.83h10.01v-1.77c0-5.63-2.19-8.34-7.72-8.34s-7.4,2.4-7.61,6.15h-14.91c.83-12.1,8.13-18.25,23.15-18.25s22.52,6.46,22.52,20.65ZM370.83,62.84v-6.26h-7.2c-6.99,0-9.28,2.4-9.28,6.36s2.29,6.05,6.67,6.05,7.61-2.09,9.8-6.15Z" style="fill: #fff;"/>
        <path id="uuid-66ef8a76-cc21-4f10-a26a-6561f1e6d233" data-name="i3" d="M395.96,4.55h16.27v13.14h-16.27V4.55ZM396.38,25.41h15.43v54.43h-15.43V25.41Z" style="fill: #fff;"/>
      </g>
      <path id="uuid-a480ba81-2a91-4994-8a64-61330cae8d43" data-name="logomark-joined" d="M72,36C72,16.12,55.88,0,36,0S0,16.12,0,36c0,9.05,3.35,17.32,8.86,23.64l27.14,36.38,27.23-36.42h-.05c5.49-6.32,8.83-14.57,8.83-23.6ZM48.49,56.49v15.51s0-12-12.49-12c-13.25,0-24-10.75-24-24s10.75-24,24-24,24,10.75,24,24c0,8.68-4.61,16.28-11.51,20.49Z" style="fill: #fff;"/>
    </g>
  </g>
</svg>