<?xml version="1.0" encoding="UTF-8"?>
<svg id="uuid-59f789d4-c509-418b-bdf5-ad0db0e73096" data-name="Layer 2" xmlns="http://www.w3.org/2000/svg" viewBox="0 0 412.23 98.82">
  <g id="uuid-b2c68972-9a44-48f0-9fb7-9de5320048c3" data-name="tripti.ai-logo">
    <g id="uuid-29cdf8b8-8c50-44c8-b76f-2fb01eb19032" data-name="white-background" style="opacity: .5;">
      <g id="uuid-6628a246-590f-4493-b02f-4c349437c496" data-name="tripti.ai-text">
        <path id="uuid-0109395b-94b0-44e1-bdf7-a38984c59703" data-name="t1" d="M126.39,67.74v12.1h-11.37c-11.16,0-15.85-5.21-15.85-17.73v-25.03h-7.93v-11.68h8.24l.83-13.56h14.29v13.56h11.26v11.68h-11.26v24.09c0,5.11,1.25,6.57,5.74,6.57h6.05Z" style="fill: #060f29;"/>
        <path id="uuid-99178a37-9c6e-40ab-9489-fd4afcfc5841" data-name="r1" d="M163.93,24.37v14.39h-2.92c-8.03,0-11.89,3.02-13.35,10.64v30.45h-15.43V25.41h13.14l.63,10.12c2.09-7.72,6.36-11.16,13.87-11.16h4.07Z" style="fill: #060f29;"/>
        <path id="uuid-6fd727bf-4090-4235-b42e-7aee4f5e8ed1" data-name="i1" d="M168.63,4.55h16.27v13.14h-16.27V4.55ZM169.04,25.41h15.43v54.43h-15.43V25.41Z" style="fill: #060f29;"/>
        <path id="uuid-5156f325-2219-4c3d-9f52-9469dddd654a" data-name="p1" d="M244.23,46.47v12.2c0,14.7-6.99,22.42-19.4,22.42-5.84,0-10.43-1.77-14.08-5.63v23.36h-15.43V25.41h13.14l.42,6.57c4.07-5.42,9.07-7.82,15.95-7.82,12.41,0,19.4,7.61,19.4,22.32ZM228.8,46.58c0-6.99-2.61-9.91-7.61-9.91s-8.24,2.82-10.43,8.24v15.33c2.19,5.53,5.63,8.34,10.53,8.34s7.51-2.82,7.51-9.91v-12.1Z" style="fill: #060f29;"/>
        <path id="uuid-8d0e588b-1fad-4cb9-a935-d15566cfef44" data-name="t2" d="M282.19,67.74v12.1h-11.37c-11.16,0-15.85-5.21-15.85-17.73v-25.03h-7.93v-11.68h8.24l.83-13.56h14.29v13.56h11.26v11.68h-11.26v24.09c0,5.11,1.25,6.57,5.74,6.57h6.05Z" style="fill: #060f29;"/>
        <path id="uuid-acd65ce2-92ab-4c8a-951e-0bb5fec4e126" data-name="i2" d="M287.61,4.55h16.27v13.14h-16.27V4.55ZM288.03,25.41h15.43v54.43h-15.43V25.41Z" style="fill: #060f29;"/>
        <path id="uuid-669c15c0-5665-466d-85cc-89e2a879d65d" data-name="dot" d="M314.83,63.68h16.16v16.16h-16.16v-16.16Z" style="fill: #060f29;"/>
        <path id="uuid-f2e0190c-7b75-4838-8215-4900f8a7d5b7" data-name="a1" d="M386.26,44.8v35.04h-13.04l-.52-6.78c-3.75,5.32-9.18,8.03-16.37,8.03-10.74,0-17.21-6.05-17.21-16.89,0-11.47,7.2-17.83,21.69-17.83h10.01v-1.77c0-5.63-2.19-8.34-7.72-8.34s-7.4,2.4-7.61,6.15h-14.91c.83-12.1,8.13-18.25,23.15-18.25s22.52,6.46,22.52,20.65ZM370.83,62.84v-6.26h-7.2c-6.99,0-9.28,2.4-9.28,6.36s2.29,6.05,6.67,6.05,7.61-2.09,9.8-6.15Z" style="fill: #060f29;"/>
        <path id="uuid-fdfde840-1b05-4d23-8c11-f23a76516f7c" data-name="i3" d="M395.96,4.55h16.27v13.14h-16.27V4.55ZM396.38,25.41h15.43v54.43h-15.43V25.41Z" style="fill: #060f29;"/>
      </g>
      <path id="uuid-0f7f0796-8410-469f-9046-bb6b51f40ab5" data-name="logomark-joined" d="M72,36C72,16.12,55.88,0,36,0S0,16.12,0,36c0,9.05,3.35,17.32,8.86,23.64l27.14,36.38,27.23-36.42h-.05c5.49-6.32,8.83-14.57,8.83-23.6ZM48.49,56.49v15.51s0-12-12.49-12c-13.25,0-24-10.75-24-24s10.75-24,24-24,24,10.75,24,24c0,8.68-4.61,16.28-11.51,20.49Z" style="fill: #060f29;"/>
    </g>
  </g>
</svg>